# xmcd
#
# Track frame offsets:
# 150
# 9340
# 18597
# 30847
# 42390
# 54230
# 65417
# 76325
# 86207
# 97132
# 115985
# 126832
# 138705
# 148972
# 161067
# 171230
# 180687
# 191807
# 205805
# 222295
# 235225
# 255655
# 266550
# 281140
# 292910
# 305140
# 318497
#
# Disc length: 4505 seconds
#
#
# Revision: 2
# Processed by: cddbd v1.4PL0 Copyright (c) Steve Scherf et al.
# Submitted via: FreeRIP 2.51 
#
DISCID=9c11971b
DTITLE=Elvis Presley - The Country Side Of Elvis CD 1
DYEAR=2001
DGENRE=Country
TTITLE0=It Wouldnt Be The Same Without You
TTITLE1=Blue Moon Of Kentucky
TTITLE2=I Love You Because
TTITLE3=Just Because
TTITLE4=I'm Left, You're Right, She's Gone
TTITLE5=I Forgot To Remember To Forget
TTITLE6=I'm Counting On You
TTITLE7=How Do You Think I Feel
TTITLE8=How's The World Treating You
TTITLE9=Old Shep
TTITLE10=Your Cheatin' Heart
TTITLE11=(Now And Then There's) A Fool Such As I
TTITLE12=There's Always Me
TTITLE13=It's A Sin
TTITLE14=Guitar Man
TTITLE15=Just Call Me Lonesome
TTITLE16=You Don't Know Me
TTITLE17=After Loving You
TTITLE18=Long Black Limousine
TTITLE19=I'm Movin'
TTITLE20=I'll Hold You In My Heart
TTITLE21=From A Jack To A King
TTITLE22=Kentucky Rain
TTITLE23=It Keeps Right On A Hurtin'
TTITLE24=If I'm A Fool For Loving You
TTITLE25=Release Me
TTITLE26=Funny How Time Slips Away
EXTD=
EXTT0=
EXTT1=
EXTT2=
EXTT3=
EXTT4=
EXTT5=
EXTT6=
EXTT7=
EXTT8=
EXTT9=
EXTT10=
EXTT11=
EXTT12=
EXTT13=
EXTT14=
EXTT15=
EXTT16=
EXTT17=
EXTT18=
EXTT19=
EXTT20=
EXTT21=
EXTT22=
EXTT23=
EXTT24=
EXTT25=
EXTT26=
PLAYORDER=
